<mxfile host="app.diagrams.net" agent="Mozilla/5.0 (Windows NT 10.0; Win64; x64) AppleWebKit/537.36 (KHTML, like Gecko) Chrome/131.0.0.0 Safari/537.36 Edg/131.0.0.0" version="25.0.3">
  <diagram id="C5RBs43oDa-KdzZeNtuy" name="Page-1">
    <mxGraphModel dx="996" dy="567" grid="1" gridSize="10" guides="1" tooltips="1" connect="1" arrows="1" fold="1" page="1" pageScale="1" pageWidth="827" pageHeight="1169" math="0" shadow="0">
      <root>
        <mxCell id="WIyWlLk6GJQsqaUBKTNV-0" />
        <mxCell id="WIyWlLk6GJQsqaUBKTNV-1" parent="WIyWlLk6GJQsqaUBKTNV-0" />
        <mxCell id="DYsbvY0A7Q3seqad_XEp-3" value="" style="edgeStyle=orthogonalEdgeStyle;rounded=0;orthogonalLoop=1;jettySize=auto;html=1;" edge="1" parent="WIyWlLk6GJQsqaUBKTNV-1" source="DYsbvY0A7Q3seqad_XEp-0" target="DYsbvY0A7Q3seqad_XEp-2">
          <mxGeometry relative="1" as="geometry" />
        </mxCell>
        <mxCell id="DYsbvY0A7Q3seqad_XEp-0" value="Bắt đầu" style="ellipse;whiteSpace=wrap;html=1;" vertex="1" parent="WIyWlLk6GJQsqaUBKTNV-1">
          <mxGeometry x="354" y="30" width="120" height="80" as="geometry" />
        </mxCell>
        <mxCell id="DYsbvY0A7Q3seqad_XEp-1" value="Kết thúc" style="ellipse;whiteSpace=wrap;html=1;" vertex="1" parent="WIyWlLk6GJQsqaUBKTNV-1">
          <mxGeometry x="354" y="770" width="120" height="80" as="geometry" />
        </mxCell>
        <mxCell id="DYsbvY0A7Q3seqad_XEp-5" value="" style="edgeStyle=orthogonalEdgeStyle;rounded=0;orthogonalLoop=1;jettySize=auto;html=1;" edge="1" parent="WIyWlLk6GJQsqaUBKTNV-1" source="DYsbvY0A7Q3seqad_XEp-2" target="DYsbvY0A7Q3seqad_XEp-4">
          <mxGeometry relative="1" as="geometry" />
        </mxCell>
        <mxCell id="DYsbvY0A7Q3seqad_XEp-2" value="Nhập số nguyên dương n bất kì" style="shape=parallelogram;perimeter=parallelogramPerimeter;whiteSpace=wrap;html=1;fixedSize=1;" vertex="1" parent="WIyWlLk6GJQsqaUBKTNV-1">
          <mxGeometry x="354" y="150" width="120" height="60" as="geometry" />
        </mxCell>
        <mxCell id="DYsbvY0A7Q3seqad_XEp-7" value="" style="edgeStyle=orthogonalEdgeStyle;rounded=0;orthogonalLoop=1;jettySize=auto;html=1;" edge="1" parent="WIyWlLk6GJQsqaUBKTNV-1" source="DYsbvY0A7Q3seqad_XEp-4" target="DYsbvY0A7Q3seqad_XEp-6">
          <mxGeometry relative="1" as="geometry" />
        </mxCell>
        <mxCell id="DYsbvY0A7Q3seqad_XEp-4" value="Khởi tạo i&amp;nbsp; = 2" style="rounded=1;whiteSpace=wrap;html=1;" vertex="1" parent="WIyWlLk6GJQsqaUBKTNV-1">
          <mxGeometry x="354" y="250" width="120" height="60" as="geometry" />
        </mxCell>
        <mxCell id="DYsbvY0A7Q3seqad_XEp-11" value="" style="edgeStyle=orthogonalEdgeStyle;rounded=0;orthogonalLoop=1;jettySize=auto;html=1;" edge="1" parent="WIyWlLk6GJQsqaUBKTNV-1" source="DYsbvY0A7Q3seqad_XEp-6" target="DYsbvY0A7Q3seqad_XEp-10">
          <mxGeometry relative="1" as="geometry" />
        </mxCell>
        <mxCell id="DYsbvY0A7Q3seqad_XEp-6" value="Nếu i * i &amp;lt;= n" style="rhombus;whiteSpace=wrap;html=1;" vertex="1" parent="WIyWlLk6GJQsqaUBKTNV-1">
          <mxGeometry x="339" y="360" width="150" height="80" as="geometry" />
        </mxCell>
        <mxCell id="DYsbvY0A7Q3seqad_XEp-15" value="" style="edgeStyle=orthogonalEdgeStyle;rounded=0;orthogonalLoop=1;jettySize=auto;html=1;" edge="1" parent="WIyWlLk6GJQsqaUBKTNV-1" source="DYsbvY0A7Q3seqad_XEp-10" target="DYsbvY0A7Q3seqad_XEp-14">
          <mxGeometry relative="1" as="geometry" />
        </mxCell>
        <mxCell id="DYsbvY0A7Q3seqad_XEp-23" value="" style="edgeStyle=orthogonalEdgeStyle;rounded=0;orthogonalLoop=1;jettySize=auto;html=1;" edge="1" parent="WIyWlLk6GJQsqaUBKTNV-1" source="DYsbvY0A7Q3seqad_XEp-10" target="DYsbvY0A7Q3seqad_XEp-22">
          <mxGeometry relative="1" as="geometry" />
        </mxCell>
        <mxCell id="DYsbvY0A7Q3seqad_XEp-10" value="Nếu n % i == 0" style="rhombus;whiteSpace=wrap;html=1;" vertex="1" parent="WIyWlLk6GJQsqaUBKTNV-1">
          <mxGeometry x="339" y="500" width="150" height="80" as="geometry" />
        </mxCell>
        <mxCell id="DYsbvY0A7Q3seqad_XEp-12" value="Đúng" style="text;html=1;align=center;verticalAlign=middle;whiteSpace=wrap;rounded=0;" vertex="1" parent="WIyWlLk6GJQsqaUBKTNV-1">
          <mxGeometry x="339" y="450" width="60" height="30" as="geometry" />
        </mxCell>
        <mxCell id="DYsbvY0A7Q3seqad_XEp-21" value="" style="edgeStyle=orthogonalEdgeStyle;rounded=0;orthogonalLoop=1;jettySize=auto;html=1;" edge="1" parent="WIyWlLk6GJQsqaUBKTNV-1" source="DYsbvY0A7Q3seqad_XEp-14" target="DYsbvY0A7Q3seqad_XEp-1">
          <mxGeometry relative="1" as="geometry" />
        </mxCell>
        <mxCell id="DYsbvY0A7Q3seqad_XEp-14" value="Không phải số nguyên tố" style="strokeWidth=2;html=1;shape=mxgraph.flowchart.display;whiteSpace=wrap;" vertex="1" parent="WIyWlLk6GJQsqaUBKTNV-1">
          <mxGeometry x="364" y="640" width="100" height="60" as="geometry" />
        </mxCell>
        <mxCell id="DYsbvY0A7Q3seqad_XEp-20" value="Đúng" style="text;html=1;align=center;verticalAlign=middle;whiteSpace=wrap;rounded=0;" vertex="1" parent="WIyWlLk6GJQsqaUBKTNV-1">
          <mxGeometry x="354" y="590" width="60" height="30" as="geometry" />
        </mxCell>
        <mxCell id="DYsbvY0A7Q3seqad_XEp-24" style="edgeStyle=orthogonalEdgeStyle;rounded=0;orthogonalLoop=1;jettySize=auto;html=1;exitX=0.5;exitY=0;exitDx=0;exitDy=0;entryX=1;entryY=0.5;entryDx=0;entryDy=0;" edge="1" parent="WIyWlLk6GJQsqaUBKTNV-1" source="DYsbvY0A7Q3seqad_XEp-22" target="DYsbvY0A7Q3seqad_XEp-6">
          <mxGeometry relative="1" as="geometry" />
        </mxCell>
        <mxCell id="DYsbvY0A7Q3seqad_XEp-22" value="Tăng biến i thêm 1" style="rounded=1;whiteSpace=wrap;html=1;" vertex="1" parent="WIyWlLk6GJQsqaUBKTNV-1">
          <mxGeometry x="580" y="510" width="120" height="60" as="geometry" />
        </mxCell>
        <mxCell id="DYsbvY0A7Q3seqad_XEp-28" style="edgeStyle=orthogonalEdgeStyle;rounded=0;orthogonalLoop=1;jettySize=auto;html=1;exitX=0.5;exitY=1;exitDx=0;exitDy=0;exitPerimeter=0;entryX=0;entryY=0.5;entryDx=0;entryDy=0;" edge="1" parent="WIyWlLk6GJQsqaUBKTNV-1" source="DYsbvY0A7Q3seqad_XEp-25" target="DYsbvY0A7Q3seqad_XEp-1">
          <mxGeometry relative="1" as="geometry" />
        </mxCell>
        <mxCell id="DYsbvY0A7Q3seqad_XEp-25" value="Là số nguyên tố" style="strokeWidth=2;html=1;shape=mxgraph.flowchart.display;whiteSpace=wrap;" vertex="1" parent="WIyWlLk6GJQsqaUBKTNV-1">
          <mxGeometry x="190" y="640" width="100" height="60" as="geometry" />
        </mxCell>
        <mxCell id="DYsbvY0A7Q3seqad_XEp-26" style="edgeStyle=orthogonalEdgeStyle;rounded=0;orthogonalLoop=1;jettySize=auto;html=1;exitX=0;exitY=0.5;exitDx=0;exitDy=0;entryX=0.5;entryY=0;entryDx=0;entryDy=0;entryPerimeter=0;" edge="1" parent="WIyWlLk6GJQsqaUBKTNV-1" source="DYsbvY0A7Q3seqad_XEp-6" target="DYsbvY0A7Q3seqad_XEp-25">
          <mxGeometry relative="1" as="geometry" />
        </mxCell>
        <mxCell id="DYsbvY0A7Q3seqad_XEp-27" value="Sai" style="text;html=1;align=center;verticalAlign=middle;whiteSpace=wrap;rounded=0;" vertex="1" parent="WIyWlLk6GJQsqaUBKTNV-1">
          <mxGeometry x="180" y="510" width="60" height="30" as="geometry" />
        </mxCell>
      </root>
    </mxGraphModel>
  </diagram>
</mxfile>
